<svg viewBox="0 0 210 298" version="1.1" xmlns="http://www.w3.org/2000/svg" xmlns:xlink="http://www.w3.org/1999/xlink">
    <g>
        <path d="M2.62977372,228.761728 C-1.41719284,209.67325 -3.34431976,211.02294 28.4532746,211.02294 L56.3966151,211.02294 L56.3966151,215.65045 C56.3966151,228.568915 66.0322497,243.608322 78.1731494,249.971149 C88.1942095,255.177097 117.486539,257.105227 130.398289,253.44178 C153.138387,247.078955 161.617745,221.242025 146.586155,204.081675 C139.07036,195.597906 129.0493,190.584771 99.7569711,180.172873 C64.6832608,168.025659 46.7609803,158.577828 32.6929537,145.466549 C15.7342368,129.655891 9.37471798,115.77336 9.37471798,94.3711267 C9.37471798,73.5473313 15.9269495,58.8935494 31.3439651,44.4325809 C46.3755551,30.5500515 57.745604,26.5009803 118.078385,12.6184504 C114.407269,47.6739569 122.943377,69.7244035 122.943377,69.7244035 C122.943377,69.7244035 74.5422564,72.7302328 73.5480447,73.5473313 C62.9488467,82.6095381 61.5998578,99.3842616 70.850067,110.374599 C77.4022985,118.279927 91.0848997,125.02838 120.184517,135.05465 C178.961888,155.107194 202.858261,175.738176 208.446931,211.215753 C215.191874,252.670529 189.946511,286.219976 145.044454,295.667809 C130.205577,298.945629 101.876811,299.909692 88.1942095,297.788751 C42.7140139,290.461861 10.1455688,264.432117 2.62977372,228.761728 Z"></path>
        <path d="M143.222109,63.2287595 C126.418772,59.1359566 125.474006,58.7831288 125.474006,57.3012519 C125.474006,56.3838995 125.878906,55.6782439 126.351288,55.6782439 C126.756188,55.6782439 135.461531,57.6540797 145.584023,60.053309 C162.994709,64.2166775 163.939475,64.5695053 163.939475,66.0513822 C163.939475,67.2509968 163.602059,67.6743902 162.454843,67.6038247 C161.57756,67.5332591 152.9397,65.5574232 143.222109,63.2287595 L143.222109,63.2287595 L143.222109,63.2287595 Z"></path>
        <path d="M124.461757,38.7425077 C124.73169,37.7545897 124.93414,36.907803 125.001623,36.907803 C125.069106,36.8372374 131.614984,36.3432784 139.510528,35.8493195 L153.884466,34.8614015 L153.479567,36.6255407 C153.209633,37.6134586 153.007183,38.3896799 152.9397,38.4602454 C152.872217,38.530811 146.326339,38.9542044 138.430795,39.5187289 L124.056857,40.5066469 L124.461757,38.7425077 L124.461757,38.7425077 Z"></path>
        <path d="M121.829909,21.3833781 C121.627459,20.748288 121.425009,20.0426324 121.425009,19.8309357 C121.425009,19.5486734 129.657969,15.0324771 139.645494,9.81062516 C154.896715,1.83671604 158.000946,0.425404699 158.540813,1.34275707 C158.878229,1.90728161 159.215646,2.75406842 159.215646,3.10689625 C159.215646,3.81255193 124.124341,22.5124272 122.842158,22.5124272 C122.504741,22.5124272 122.032359,22.0184683 121.829909,21.3833781 L121.829909,21.3833781 L121.829909,21.3833781 Z"></path>
    </g>
</svg>
